<svg xmlns="http://www.w3.org/2000/svg" width="600" height="600" viewBox="0 0 600 600">
  <rect width="600" height="600" fill="white"/>
  <text x="300" y="40" text-anchor="middle" font-family="Arial, Helvetica, sans-serif" font-size="24" font-weight="700" fill="#0F172A">THE UNIVERSITY OF LAHORE</text>
  <circle cx="300" cy="285" r="210" fill="#0A2A72"/>
  <circle cx="300" cy="285" r="191" fill="white"/>
  <circle cx="300" cy="285" r="169" fill="#0C8A43"/>
  <circle cx="300" cy="285" r="146" fill="white"/>
  <circle cx="300" cy="285" r="94" fill="#0A2A72"/>
  <text x="300" y="170" text-anchor="middle" font-family="Arial, Helvetica, sans-serif" font-size="60" font-weight="900" fill="#0C8A43">UOL</text>
  <polygon points="300,206 322,240 309,272 300,262 291,272 278,240" fill="#C49A2C"/>
  <rect x="292" y="236" width="16" height="72" rx="6" fill="#C49A2C"/>
  <rect x="232" y="289" width="68" height="42" rx="7" fill="white"/>
  <rect x="300" y="289" width="68" height="42" rx="7" fill="white"/>
  <line x1="300" y1="290" x2="300" y2="330" stroke="#0A2A72" stroke-width="2"/>
  <polygon points="232,289 250,272 300,284 300,289" fill="white"/>
  <polygon points="368,289 350,272 300,284 300,289" fill="white"/>
  <text x="300" y="570" text-anchor="middle" font-family="Arial, Helvetica, sans-serif" font-size="15" font-weight="600" fill="#0C8A43">OFFICE OF EXTERNAL LINKAGES</text>
</svg>